<svg width="345" height="73" viewBox="0 0 345 73" fill="none" xmlns="http://www.w3.org/2000/svg">
<ellipse cx="37.96" cy="36.5" rx="37.96" ry="36.5" fill="black"/>
<rect x="32.12" y="28.032" width="12.264" height="16.936" fill="white"/>
<path d="M87.9504 46.6387C88.81 43.9103 89.6697 41.1818 90.5293 38.4534C89.2212 38.3039 87.913 38.3039 86.6796 38.5655C83.1663 39.3504 82.344 34.0056 88.6232 34.4541C93.3699 34.8279 99.0884 38.117 102.527 41.7051C101.892 39.7242 101.256 37.7432 100.621 35.7623C99.4996 32.2116 98.3783 28.6609 97.257 25.1475C97.1823 24.8485 97.1075 24.6243 96.9954 24.3626C96.9206 24.6243 96.8085 24.8485 96.7338 25.1475C95.7246 28.3619 94.6781 31.5762 93.6689 34.7905C93.0709 34.5289 92.4729 34.342 91.8749 34.1551C92.884 31.0529 93.8558 27.9881 94.8276 24.8859C95.164 23.8394 95.5003 22.9797 95.7994 22.2696C94.865 21.1857 93.7437 20.9614 92.5476 20.9614C91.2769 20.9614 91.1274 19.0552 92.3608 19.0552C93.482 19.0552 94.6407 19.0552 95.762 19.0552C107.012 19.0552 107.834 19.4664 109.554 24.8859C110.712 28.5114 111.871 32.1368 113.03 35.7623C114.151 39.3878 115.31 43.0133 116.468 46.6387C117.59 50.1521 119.832 50.5632 121.103 50.5632C122.374 50.5632 122.448 52.432 121.178 52.432C120.056 52.432 118.935 52.432 117.814 52.432C115.721 52.432 113.665 52.432 111.609 52.432C109.554 52.432 107.498 52.432 105.405 52.432C104.284 52.432 103.162 52.432 102.004 52.432C100.77 52.432 100.696 50.5632 101.929 50.5632C103.873 50.5632 105.143 49.9652 104.022 46.3771L103.76 45.5922C101.854 42.7142 97.1823 39.7989 92.4355 38.7524C91.6132 41.294 90.791 43.8355 90.0061 46.3771C88.8474 49.9652 90.1556 50.5632 92.0618 50.5632C93.2952 50.5632 93.2204 52.432 91.987 52.432C85.5957 52.432 89.5949 52.432 83.2036 52.432C81.9702 52.432 82.045 50.5632 83.2784 50.5632C84.5866 50.5632 86.8291 50.1521 87.9504 46.6387ZM148.492 20.8119C153.687 19.0552 154.136 23.6899 151.034 23.8394C143.073 24.4 138.737 30.5297 138.737 36.7715V46.6387C138.737 50.1521 140.83 50.5632 142.138 50.5632C142.662 50.5632 143.073 51.0117 143.073 51.4976C143.073 52.0209 142.662 52.4694 142.138 52.4694H122.964C122.441 52.4694 122.03 52.0209 122.03 51.4976C122.03 51.0117 122.441 50.5632 122.964 50.5632C124.908 50.5632 126.366 49.9652 126.366 46.3771V32.4358C126.366 28.8851 124.908 28.2497 122.964 28.2497C122.441 28.2497 122.03 27.8386 122.03 27.3153C122.03 26.7921 122.441 26.3809 122.964 26.3809H123.039C128.72 26.3809 132.383 26.8668 134.7 27.9881C136.457 28.8104 137.541 30.0064 138.139 31.4641C140.269 26.7173 143.783 22.4938 148.492 20.8119ZM167.064 43.5739C167.064 42.2284 168.522 42.4152 168.522 43.5365C168.522 49.3672 166.279 52.731 159.402 52.731C153.347 52.731 151.067 49.0682 151.067 43.5365V32.4358C151.067 28.8851 149.572 28.2497 147.666 28.2497C147.143 28.2497 146.732 27.8386 146.732 27.3153C146.732 26.7921 147.143 26.3809 147.666 26.3809H147.704C156.487 26.3809 160.823 23.7646 161.869 19.9523C162.168 18.6441 163.439 18.9057 163.439 19.9523V26.2314C164.485 26.3436 165.569 26.3809 166.765 26.3809H166.84C167.363 26.3809 167.774 26.7921 167.774 27.3153C167.774 27.8386 167.363 28.2497 166.84 28.2497C164.896 28.2497 163.439 28.8851 163.439 32.4358V43.5365C163.439 45.2184 163.401 47.9095 165.233 47.9095C166.466 47.9095 167.064 46.1528 167.064 43.5739ZM217.716 19.0552C218.875 19.0552 219.996 19.0552 221.118 19.0552C222.388 19.0552 222.426 20.9614 221.192 20.9614C219.286 20.9614 218.352 21.6716 219.137 25.1475L223.248 47.162L227.696 25.1849C228.443 21.5968 227.21 20.9614 225.266 20.9614C224.07 20.9614 224.108 19.0552 225.378 19.0552C231.77 19.0552 227.733 19.0552 234.124 19.0552C235.358 19.0552 235.32 20.9614 234.05 20.9614C232.742 20.9614 230.424 21.4099 229.677 24.8859L225.005 47.8721C224.444 50.7875 223.958 52.2451 220.445 52.432C219.473 52.5068 217.492 52.432 215.81 52.432C211.998 52.432 210.839 50.7127 210.129 46.6387L207.587 32.6975L204.485 47.8721C203.925 50.7875 203.439 52.2451 199.963 52.432C198.954 52.5068 196.973 52.432 195.291 52.432C191.478 52.432 190.357 50.7127 189.61 46.6387L185.61 24.8859C185.05 21.4099 182.284 20.9614 180.976 20.9614C179.705 20.9614 179.668 19.0552 180.901 19.0552C182.022 19.0552 183.144 19.0552 184.302 19.0552C186.358 19.0552 188.414 19.0552 190.469 19.0552C192.525 19.0552 195.141 19.0552 197.197 19.0552C198.356 19.0552 199.477 19.0552 200.598 19.0552C201.869 19.0552 201.944 20.9614 200.71 20.9614C198.767 20.9614 197.87 21.6716 198.617 25.1475L202.729 47.162L205.98 31.1277L208.484 19.0552H217.716ZM247.148 26.3436C255.52 26.3436 262.285 32.249 262.285 39.5373C262.285 46.8256 255.52 52.731 247.148 52.731C238.813 52.731 232.048 46.8256 232.048 39.5373C232.048 32.249 238.813 26.3436 247.148 26.3436ZM247.148 50.6006C248.344 50.6006 249.316 45.6296 249.316 39.5373C249.316 33.4076 248.344 28.474 247.148 28.474C245.989 28.474 245.017 33.4076 245.017 39.5373C245.017 45.6296 245.989 50.6006 247.148 50.6006ZM290.003 20.8119C295.198 19.0552 295.646 23.6899 292.544 23.8394C284.583 24.4 280.248 30.5297 280.248 36.7715V46.6387C280.248 50.1521 282.341 50.5632 283.649 50.5632C284.172 50.5632 284.583 51.0117 284.583 51.4976C284.583 52.0209 284.172 52.4694 283.649 52.4694H264.475C263.952 52.4694 263.541 52.0209 263.541 51.4976C263.541 51.0117 263.952 50.5632 264.475 50.5632C266.418 50.5632 267.876 49.9652 267.876 46.3771V32.4358C267.876 28.8851 266.418 28.2497 264.475 28.2497C263.952 28.2497 263.541 27.8386 263.541 27.3153C263.541 26.7921 263.952 26.3809 264.475 26.3809H264.55C270.231 26.3809 273.894 26.8668 276.211 27.9881C277.968 28.8104 279.052 30.0064 279.65 31.4641C281.78 26.7173 285.293 22.4938 290.003 20.8119ZM306.607 50.5632C307.131 50.5632 307.542 51.0117 307.542 51.4976C307.542 52.0209 307.131 52.4694 306.607 52.4694H287.433C286.91 52.4694 286.499 52.0209 286.499 51.4976C286.499 51.0117 286.91 50.5632 287.433 50.5632C289.377 50.5632 290.835 49.9652 290.835 46.3771V32.4358C290.835 28.8851 289.377 28.2497 287.433 28.2497C286.91 28.2497 286.499 27.8386 286.499 27.3153C286.499 26.7921 286.91 26.3809 287.433 26.3809H287.508C296.292 26.3809 300.59 23.7646 301.636 19.9523C301.935 18.6441 303.206 18.9057 303.206 19.9523V46.6387C303.206 50.1521 305.299 50.5632 306.607 50.5632ZM342.419 50.5632C342.942 50.5632 343.353 51.0117 343.353 51.4976C343.353 52.0209 342.942 52.432 342.419 52.432H326.646V51.0117C325.562 51.9835 324.105 52.3946 322.46 52.432C303.286 52.9926 303.922 23.802 323.17 26.4931C324.404 26.6799 325.637 27.3527 326.646 29.2589V19.9523C326.646 18.9057 327.917 18.6441 328.216 19.9523C329.225 23.7646 333.561 26.3809 342.344 26.3809H342.419C342.942 26.3809 343.353 26.7921 343.353 27.3153C343.353 27.8386 342.942 28.2497 342.419 28.2497C340.476 28.2497 339.018 28.8851 339.018 32.4358V46.3771C339.018 49.9652 340.476 50.5632 342.419 50.5632ZM326.646 46.8256V33.8561C326.646 31.6509 325.525 28.7356 323.881 28.8477C319.993 29.072 320.442 51.3481 324.703 50.7875C325.562 50.6753 326.646 49.4793 326.646 46.8256Z" fill="black"/>
</svg>
